<?xml version="1.0" standalone="no"?>
<!DOCTYPE svg PUBLIC "-//W3C//DTD SVG 20010904//EN"
 "http://www.w3.org/TR/2001/REC-SVG-20010904/DTD/svg10.dtd">
<svg version="1.0" xmlns="http://www.w3.org/2000/svg"
 width="700.000000pt" height="700.000000pt" viewBox="135 167 700 700"
 preserveAspectRatio="xMidYMid meet">

<g transform="translate(0.000000,927.000000) scale(0.100000,-0.100000)"
fill="#000000" stroke="none">
<path d="M3215 7388 c-108 -11 -313 -59 -412 -98 -228 -88 -389 -243 -456
-440 -18 -53 -19 -102 -18 -1330 2 -1935 4 -2093 24 -2165 94 -327 432 -686
924 -983 99 -60 356 -192 374 -192 4 0 57 64 116 143 60 78 145 188 188 245
194 251 400 520 700 912 82 107 167 218 189 247 23 28 73 93 111 144 39 50 95
123 125 163 162 208 270 354 270 364 0 7 -11 12 -24 12 -12 0 -36 4 -52 9 -16
5 -103 33 -194 61 -1203 379 -2305 1213 -2524 1909 -55 175 -50 309 19 446 96
193 320 316 659 361 132 18 443 15 566 -5 36 -6 126 -20 200 -32 340 -53 819
-204 1203 -379 153 -69 192 -89 367 -182 603 -323 1108 -742 1384 -1147 76
-111 161 -289 186 -386 42 -168 19 -350 -56 -451 -118 -157 -248 -237 -474
-291 -93 -22 -133 -26 -354 -30 -244 -5 -393 3 -535 29 l-63 12 -27 -30 c-14
-17 -65 -82 -113 -145 -48 -63 -169 -220 -269 -349 -99 -129 -220 -286 -267
-349 -95 -125 -207 -270 -287 -371 -146 -185 -289 -371 -469 -610 -253 -335
-283 -374 -385 -505 l-83 -107 16 -51 c8 -29 25 -95 36 -147 55 -261 140 -588
179 -691 43 -115 112 -180 168 -158 45 17 110 76 172 157 32 42 103 132 157
198 54 67 162 199 239 294 77 95 177 218 223 274 46 56 109 133 141 171 394
479 1090 1312 1291 1545 41 48 118 138 170 201 52 62 129 152 170 199 41 47
127 149 190 225 63 77 160 187 216 245 156 162 196 224 230 353 18 70 21 240
5 312 -64 286 -227 565 -509 872 -377 409 -929 789 -1597 1099 -336 155 -861
320 -1190 373 -71 12 -157 26 -190 31 -171 29 -473 37 -660 18z m-375 -1864
c0 -12 -12 -53 -26 -90 -14 -38 -33 -90 -42 -116 -8 -27 -20 -48 -27 -48 -6 0
-46 32 -88 71 l-77 71 0 156 c0 87 3 174 7 196 l6 38 123 -128 c76 -80 123
-137 124 -150z m176 -145 c10 -12 67 -60 126 -106 59 -47 109 -91 111 -97 5
-12 -102 -246 -113 -246 -7 0 -152 112 -207 161 -18 16 -33 36 -33 45 0 25 81
264 90 264 4 0 15 -10 26 -21z m461 -367 c38 -27 114 -78 171 -115 56 -36 102
-73 102 -80 0 -15 -108 -247 -115 -247 -19 0 -345 233 -345 246 0 17 106 244
114 244 3 0 36 -22 73 -48z m495 -313 c29 -17 104 -57 168 -89 64 -32 122 -65
129 -73 10 -13 0 -35 -59 -131 -40 -64 -77 -116 -83 -116 -12 0 -240 119 -292
152 -19 13 -35 28 -35 35 0 19 106 253 115 253 2 0 28 -14 57 -31z m638 -299
c74 -29 137 -55 139 -57 18 -15 -135 -253 -162 -253 -10 0 -69 21 -130 46 -62
25 -120 48 -129 51 -10 3 -18 9 -18 15 0 31 139 261 154 255 6 -3 72 -29 146
-57z m-1936 -886 c86 -85 156 -158 156 -161 0 -5 -91 -193 -98 -203 -2 -3 -35
28 -74 69 -110 118 -148 214 -148 378 0 40 2 73 4 73 2 0 74 -70 160 -156z
m583 -478 l21 -16 -61 -105 c-34 -57 -66 -105 -70 -105 -12 0 -195 137 -240
180 l-39 36 53 106 52 105 131 -93 c72 -51 141 -100 153 -108z m321 -180 c63
-32 92 -52 90 -62 -6 -30 -124 -203 -138 -204 -15 0 -205 101 -223 119 -5 5 6
31 26 62 86 135 97 153 97 161 0 5 12 1 28 -10 15 -11 69 -41 120 -66z"/>
<path d="M3487 6964 c-3 -3 -2 -16 4 -27 14 -34 69 -267 69 -293 0 -23 3 -24
79 -24 43 0 100 -3 126 -7 l47 -6 -7 84 c-5 46 -11 125 -14 174 l-6 90 -45 7
c-57 8 -245 10 -253 2z"/>
<path d="M3148 6922 c-55 -17 -88 -32 -88 -41 0 -15 145 -260 198 -333 l34
-48 36 27 c21 15 41 30 45 34 5 4 -13 93 -39 198 -56 221 -39 207 -186 163z"/>
<path d="M3984 6903 c3 -16 10 -93 16 -173 11 -145 16 -160 52 -160 9 0 63
-11 119 -25 57 -13 104 -24 105 -22 1 1 5 76 9 167 l7 166 -26 12 c-23 10
-257 62 -281 62 -3 0 -4 -12 -1 -27z"/>
<path d="M4485 6628 l0 -172 115 -44 c165 -63 153 -63 178 0 11 29 39 98 61
152 23 54 40 100 39 100 -33 18 -367 136 -383 136 -7 0 -11 -59 -10 -172z"/>
<path d="M5040 6533 c-40 -91 -103 -253 -99 -256 15 -11 276 -127 284 -127 6
0 39 40 75 88 36 47 82 105 102 128 l37 40 -137 66 c-151 72 -230 108 -237
108 -2 0 -14 -21 -25 -47z"/>
<path d="M2864 6385 c46 -306 482 -735 1161 -1142 737 -441 1551 -697 2082
-653 192 15 290 40 423 107 101 51 200 122 200 143 0 7 -15 5 -130 -20 -76
-16 -417 -27 -581 -18 -387 21 -968 179 -1424 388 -389 178 -764 397 -1095
638 -199 145 -463 388 -590 542 l-53 65 7 -50z"/>
<path d="M5516 6178 l-106 -130 127 -75 c71 -41 136 -82 145 -90 16 -14 28 -6
142 98 68 63 124 116 125 119 0 3 -37 28 -82 56 -45 28 -119 74 -163 102 l-81
51 -107 -131z"/>
<path d="M3530 6205 c0 -59 120 -210 258 -326 416 -348 1095 -665 1622 -759
120 -21 366 -31 450 -18 25 4 79 18 120 32 41 14 76 26 78 26 2 0 0 5 -3 10
-3 6 -44 10 -90 10 -88 0 -285 29 -372 55 -42 13 -57 24 -86 64 -168 234 -935
605 -1315 637 -67 6 -89 4 -120 -10 l-38 -17 -75 42 c-102 58 -336 206 -380
240 -42 33 -49 35 -49 14z"/>
<path d="M5995 5858 l-116 -113 58 -45 c32 -25 93 -75 135 -113 88 -77 74 -76
181 -3 34 23 88 57 119 75 32 18 60 36 63 41 8 12 -291 270 -313 270 -6 0 -63
-51 -127 -112z"/>
<path d="M6450 5454 c-69 -47 -129 -89 -133 -93 -5 -5 8 -58 27 -118 20 -60
36 -117 36 -127 0 -14 5 -17 23 -12 12 4 49 11 82 17 33 6 92 19 132 30 39 10
80 19 90 19 35 0 93 21 93 33 0 19 -65 140 -107 200 -74 105 -98 136 -108 137
-6 0 -67 -38 -135 -86z"/>
</g>
</svg>
